<?xml version="1.0" encoding="UTF-8"?>
<svg version="1.1" xmlns="http://www.w3.org/2000/svg" width="800" height="800">
<path d="M0 0 C0.7704854 -0.00265183 1.5409708 -0.00530365 2.33480424 -0.00803584 C4.91389991 -0.01568887 7.49294766 -0.01628648 10.07205391 -0.01688576 C11.94118787 -0.02090306 13.81032096 -0.02534173 15.67945302 -0.03016531 C20.81448925 -0.04210759 25.9495161 -0.04777386 31.08456349 -0.05234647 C36.62417225 -0.05831178 42.16376984 -0.06991959 47.70337105 -0.08063698 C61.08445105 -0.10514436 74.46553474 -0.1197881 87.84663028 -0.13269705 C91.62928824 -0.13641096 95.41194584 -0.14038405 99.19460344 -0.14444971 C122.70694636 -0.16969424 146.21929029 -0.1917536 169.73164368 -0.20417786 C175.17642278 -0.20709884 180.62120186 -0.21006644 186.06598091 -0.21308327 C186.74238 -0.21345418 187.41877909 -0.21382509 188.11567512 -0.21420723 C210.01101391 -0.22634345 231.90627197 -0.25725624 253.80157289 -0.29900479 C276.98119104 -0.343121 300.16076343 -0.36872592 323.34042943 -0.37409842 C335.96312246 -0.37750297 348.58568824 -0.38914463 361.2083416 -0.42220116 C371.9654208 -0.45032642 382.72234665 -0.46114668 393.47945975 -0.4500057 C398.95904916 -0.44485034 404.43831806 -0.44750042 409.91786003 -0.47247124 C460.57177439 -0.69061088 504.00201354 9.16403711 541.21197701 45.82451439 C568.75331235 73.6426802 585.22548805 111.30458529 585.24087715 150.56642723 C585.24489683 151.94058547 585.24933588 153.31474254 585.25415671 154.68889821 C585.266073 158.45574539 585.27175919 162.2225798 585.27633786 165.98944211 C585.28231326 170.05664669 585.29391866 174.12383616 585.30462837 178.1910305 C585.32911514 188.01256651 585.34377769 197.8341075 585.35668844 207.65566462 C585.36040425 210.43403686 585.3643772 213.21240861 585.3684411 215.99078035 C585.39369063 233.27501838 585.41572571 250.55925728 585.42816925 267.84350967 C585.43109857 271.84450216 585.43406028 275.84549462 585.43707466 279.84648705 C585.43782071 280.84081734 585.43856676 281.83514763 585.43933542 282.85960914 C585.45196183 298.93104722 585.4851497 315.00237398 585.52687649 331.07376014 C585.56944785 347.6073146 585.59288207 364.14081235 585.59808981 380.67442143 C585.60148766 389.94365352 585.61304837 399.21271194 585.64619255 408.48188972 C585.67440448 416.38435483 585.68510107 424.28661067 585.67399709 432.18912219 C585.66886306 436.21056447 585.67134688 440.23157006 585.69646263 444.25294685 C585.97358728 491.22708421 572.8288535 532.33158113 539.39947701 566.26201439 C513.7556135 591.65068485 476.86247941 610.33626924 440.17395401 610.27402878 C439.40346861 610.2766806 438.63298321 610.27933243 437.83914977 610.28206462 C435.2600541 610.28971765 432.68100635 610.29031526 430.1019001 610.29091454 C428.23276614 610.29493184 426.36363305 610.29937051 424.49450099 610.30419409 C419.35946476 610.31613637 414.22443791 610.32180264 409.08939052 610.32637525 C403.54978176 610.33234055 398.01018417 610.34394837 392.47058296 610.35466576 C379.08950296 610.37917314 365.70841927 610.39381688 352.32732373 610.40672582 C348.54466577 610.41043974 344.76200817 610.41441283 340.97935057 610.41847849 C317.46700765 610.44372302 293.95466372 610.46578237 270.44231033 610.47820663 C264.99753123 610.48112762 259.55275215 610.48409521 254.1079731 610.48711205 C253.09337447 610.48766841 253.09337447 610.48766841 252.05827889 610.48823601 C230.1629401 610.50037223 208.26768204 610.53128501 186.37238112 610.57303357 C163.19276297 610.61714978 140.01319058 610.6427547 116.83352458 610.6481272 C104.21083155 610.65153175 91.58826577 610.66317341 78.96561241 610.69622993 C68.20853321 610.7243552 57.45160736 610.73517546 46.69449426 610.72403447 C41.21490485 610.71887912 35.73563595 610.7215292 30.25609398 610.74650002 C-20.39782038 610.96463966 -63.82805953 601.10999167 -101.03802299 564.44951439 C-128.57935834 536.63134858 -145.05153404 498.96944349 -145.06692314 459.70760155 C-145.07094282 458.33344331 -145.07538187 456.95928624 -145.0802027 455.58513057 C-145.09211899 451.81828339 -145.09780518 448.05144898 -145.10238385 444.28458667 C-145.10835925 440.21738209 -145.11996465 436.15019262 -145.13067436 432.08299828 C-145.15516113 422.26146227 -145.16982368 412.43992128 -145.18273443 402.61836416 C-145.18645024 399.83999192 -145.19042319 397.06162017 -145.19448709 394.28324842 C-145.21973662 376.9990104 -145.2417717 359.7147715 -145.25421524 342.4305191 C-145.25714456 338.42952662 -145.26010627 334.42853416 -145.26312065 330.42754173 C-145.2638667 329.43321144 -145.26461275 328.43888115 -145.26538141 327.41441964 C-145.27800782 311.34298156 -145.31119569 295.2716548 -145.35292248 279.20026864 C-145.39549384 262.66671418 -145.41892806 246.13321643 -145.4241358 229.59960735 C-145.42753365 220.33037526 -145.43909436 211.06131683 -145.47223854 201.79213905 C-145.50045047 193.88967395 -145.51114706 185.98741811 -145.50004308 178.08490659 C-145.49490905 174.06346431 -145.49739287 170.04245872 -145.52250862 166.02108192 C-145.79963327 119.04694457 -132.65489949 77.94244765 -99.22552299 44.01201439 C-73.58165949 18.62334393 -36.6885254 -0.06224046 0 0 Z " fill="#EEF5FE" transform="translate(179.91302299499512,94.86298561096191)"/>
<path d="M0 0 C0.7704854 -0.00265183 1.5409708 -0.00530365 2.33480424 -0.00803584 C4.91389991 -0.01568887 7.49294766 -0.01628648 10.07205391 -0.01688576 C11.94118787 -0.02090306 13.81032096 -0.02534173 15.67945302 -0.03016531 C20.81448925 -0.04210759 25.9495161 -0.04777386 31.08456349 -0.05234647 C36.62417225 -0.05831178 42.16376984 -0.06991959 47.70337105 -0.08063698 C61.08445105 -0.10514436 74.46553474 -0.1197881 87.84663028 -0.13269705 C91.62928824 -0.13641096 95.41194584 -0.14038405 99.19460344 -0.14444971 C122.70694636 -0.16969424 146.21929029 -0.1917536 169.73164368 -0.20417786 C175.17642278 -0.20709884 180.62120186 -0.21006644 186.06598091 -0.21308327 C186.74238 -0.21345418 187.41877909 -0.21382509 188.11567512 -0.21420723 C210.01101391 -0.22634345 231.90627197 -0.25725624 253.80157289 -0.29900479 C276.98119104 -0.343121 300.16076343 -0.36872592 323.34042943 -0.37409842 C335.96312246 -0.37750297 348.58568824 -0.38914463 361.2083416 -0.42220116 C371.9654208 -0.45032642 382.72234665 -0.46114668 393.47945975 -0.4500057 C398.95904916 -0.44485034 404.43831806 -0.44750042 409.91786003 -0.47247124 C460.57177439 -0.69061088 504.00201354 9.16403711 541.21197701 45.82451439 C568.75331235 73.6426802 585.22548805 111.30458529 585.24087715 150.56642723 C585.24489683 151.94058547 585.24933588 153.31474254 585.25415671 154.68889821 C585.266073 158.45574539 585.27175919 162.2225798 585.27633786 165.98944211 C585.28231326 170.05664669 585.29391866 174.12383616 585.30462837 178.1910305 C585.32911514 188.01256651 585.34377769 197.8341075 585.35668844 207.65566462 C585.36040425 210.43403686 585.3643772 213.21240861 585.3684411 215.99078035 C585.39369063 233.27501838 585.41572571 250.55925728 585.42816925 267.84350967 C585.43109857 271.84450216 585.43406028 275.84549462 585.43707466 279.84648705 C585.43782071 280.84081734 585.43856676 281.83514763 585.43933542 282.85960914 C585.45196183 298.93104722 585.4851497 315.00237398 585.52687649 331.07376014 C585.56944785 347.6073146 585.59288207 364.14081235 585.59808981 380.67442143 C585.60148766 389.94365352 585.61304837 399.21271194 585.64619255 408.48188972 C585.67440448 416.38435483 585.68510107 424.28661067 585.67399709 432.18912219 C585.66886306 436.21056447 585.67134688 440.23157006 585.69646263 444.25294685 C585.97358728 491.22708421 572.8288535 532.33158113 539.39947701 566.26201439 C513.7556135 591.65068485 476.86247941 610.33626924 440.17395401 610.27402878 C439.40346861 610.2766806 438.63298321 610.27933243 437.83914977 610.28206462 C435.2600541 610.28971765 432.68100635 610.29031526 430.1019001 610.29091454 C428.23276614 610.29493184 426.36363305 610.29937051 424.49450099 610.30419409 C419.35946476 610.31613637 414.22443791 610.32180264 409.08939052 610.32637525 C403.54978176 610.33234055 398.01018417 610.34394837 392.47058296 610.35466576 C379.08950296 610.37917314 365.70841927 610.39381688 352.32732373 610.40672582 C348.54466577 610.41043974 344.76200817 610.41441283 340.97935057 610.41847849 C317.46700765 610.44372302 293.95466372 610.46578237 270.44231033 610.47820663 C264.99753123 610.48112762 259.55275215 610.48409521 254.1079731 610.48711205 C253.09337447 610.48766841 253.09337447 610.48766841 252.05827889 610.48823601 C230.1629401 610.50037223 208.26768204 610.53128501 186.37238112 610.57303357 C163.19276297 610.61714978 140.01319058 610.6427547 116.83352458 610.6481272 C104.21083155 610.65153175 91.58826577 610.66317341 78.96561241 610.69622993 C68.20853321 610.7243552 57.45160736 610.73517546 46.69449426 610.72403447 C41.21490485 610.71887912 35.73563595 610.7215292 30.25609398 610.74650002 C-20.39782038 610.96463966 -63.82805953 601.10999167 -101.03802299 564.44951439 C-128.57935834 536.63134858 -145.05153404 498.96944349 -145.06692314 459.70760155 C-145.07094282 458.33344331 -145.07538187 456.95928624 -145.0802027 455.58513057 C-145.09211899 451.81828339 -145.09780518 448.05144898 -145.10238385 444.28458667 C-145.10835925 440.21738209 -145.11996465 436.15019262 -145.13067436 432.08299828 C-145.15516113 422.26146227 -145.16982368 412.43992128 -145.18273443 402.61836416 C-145.18645024 399.83999192 -145.19042319 397.06162017 -145.19448709 394.28324842 C-145.21973662 376.9990104 -145.2417717 359.7147715 -145.25421524 342.4305191 C-145.25714456 338.42952662 -145.26010627 334.42853416 -145.26312065 330.42754173 C-145.2638667 329.43321144 -145.26461275 328.43888115 -145.26538141 327.41441964 C-145.27800782 311.34298156 -145.31119569 295.2716548 -145.35292248 279.20026864 C-145.39549384 262.66671418 -145.41892806 246.13321643 -145.4241358 229.59960735 C-145.42753365 220.33037526 -145.43909436 211.06131683 -145.47223854 201.79213905 C-145.50045047 193.88967395 -145.51114706 185.98741811 -145.50004308 178.08490659 C-145.49490905 174.06346431 -145.49739287 170.04245872 -145.52250862 166.02108192 C-145.79963327 119.04694457 -132.65489949 77.94244765 -99.22552299 44.01201439 C-73.58165949 18.62334393 -36.6885254 -0.06224046 0 0 Z M-15.91302299 53.13701439 C-17.58518245 53.57183279 -17.58518245 53.57183279 -19.29112291 54.0154354 C-45.66323961 61.13516745 -68.15279317 79.84300258 -81.84466362 103.21611595 C-91.09067669 119.84034603 -95.06694556 137.11666908 -95.05346489 156.05080223 C-95.05643601 157.35560889 -95.05940713 158.66041556 -95.06246829 160.00476182 C-95.07050759 163.6160351 -95.07232615 167.22728847 -95.07306576 170.83856964 C-95.07492175 174.73792741 -95.08247196 178.63727498 -95.08920097 182.53662682 C-95.10276441 191.05980778 -95.10880631 199.58298403 -95.11321163 208.10617399 C-95.11597822 213.4339918 -95.1202164 218.76180781 -95.12471581 224.0896244 C-95.13690738 238.85666032 -95.14720594 253.62369479 -95.1505909 268.39073563 C-95.15081046 269.33531644 -95.15103003 270.27989724 -95.15125625 271.25310171 C-95.15147453 272.19988051 -95.1516928 273.14665931 -95.1519177 274.12212837 C-95.15236115 276.04050183 -95.15280772 277.9588753 -95.15325737 279.87724876 C-95.1534788 280.82881832 -95.15370023 281.78038787 -95.15392837 282.76079287 C-95.15787203 298.16185095 -95.17531336 313.5628616 -95.19861689 328.96390139 C-95.22237931 344.79681071 -95.23479502 360.62969628 -95.23595881 376.46262372 C-95.23687299 385.34366511 -95.2425599 394.22464473 -95.26077843 403.10566902 C-95.27624576 410.67199747 -95.28126112 418.23824507 -95.27304032 425.80458634 C-95.26915675 429.65885914 -95.26994981 433.51296945 -95.28409767 437.36722183 C-95.39968391 470.8231549 -90.58813512 500.30556705 -67.91302299 526.13701439 C-67.18341362 526.9684597 -66.45380424 527.79990501 -65.70208549 528.65654564 C-52.37257869 542.8036616 -34.58313922 552.28405343 -15.91302299 557.13701439 C-14.90939258 557.40353959 -13.90576216 557.67006479 -12.8717187 557.9446665 C-3.02087659 560.31795612 6.31524877 560.56012592 16.39821053 560.51796532 C18.21721733 560.52142831 20.03622203 560.52619716 21.8552224 560.53214705 C26.81892307 560.54459889 31.78244932 560.53851326 36.74615037 560.52918839 C42.1130261 560.52237414 47.47987276 560.53289098 52.84674263 560.54112816 C63.34756848 560.5544432 73.84832987 560.55159745 84.34915821 560.54289024 C92.88796701 560.53610424 101.42675781 560.53520094 109.96556854 560.53846169 C111.1826977 560.53892138 112.39982686 560.53938108 113.65383872 560.53985471 C116.12675682 560.54081393 118.59967491 560.54178657 121.072593 560.54277249 C144.2430304 560.55132014 167.41343215 560.54150262 190.5838637 560.52537139 C210.4419343 560.51197386 230.29995228 560.51429287 250.15802193 560.52812767 C273.24313144 560.54420327 296.32820972 560.55049089 319.41332406 560.54129088 C321.87786209 560.54033528 324.34240013 560.53939217 326.80693817 560.53846169 C328.62561421 560.53776745 328.62561421 560.53776745 330.48103118 560.53705918 C339.00272103 560.53447485 347.52439097 560.53882836 356.04607773 560.54590034 C366.44124912 560.55433778 376.83635261 560.55198837 387.23151628 560.53605811 C392.52982977 560.52820476 397.82803027 560.52503337 403.12634277 560.53500557 C407.98657979 560.54401445 412.84660022 560.53891869 417.70681789 560.52307291 C419.45500579 560.51975107 421.20321239 560.52135981 422.95138804 560.52870028 C452.20638318 560.64201369 478.89693861 552.61566002 501.08697701 533.13701439 C502.33414497 532.04260033 502.33414497 532.04260033 503.60650826 530.92607689 C522.7691238 512.870933 533.83538106 486.83140993 535.27340758 460.75658703 C535.34453494 457.2900512 535.35860544 453.82850171 535.34767342 450.36125755 C535.35149896 449.04835322 535.35532451 447.73544888 535.35926598 446.38275957 C535.36944738 442.78148301 535.36738972 439.18030709 535.36308539 435.57902265 C535.3606001 431.67847669 535.36965439 427.77795387 535.37712288 423.87741661 C535.38982111 416.25319372 535.39166978 408.62900613 535.38932262 401.00477445 C535.38753421 394.80432836 535.38930024 388.60389292 535.39354706 382.4034481 C535.39414225 381.51849613 535.39473744 380.63354415 535.39535066 379.72177544 C535.3965625 377.92360016 535.39777663 376.12542487 535.39899304 374.32724959 C535.40984928 357.49481863 535.40771487 340.66240774 535.40160819 323.82997566 C535.39643785 308.45319864 535.40770099 293.07648494 535.42670641 277.69972044 C535.44610676 261.88129005 535.45433714 246.06288959 535.45058316 230.24444723 C535.44867482 221.37534785 535.45112301 212.50630239 535.4652977 203.63721275 C535.47724034 196.08889519 535.47858397 188.54066476 535.46650753 180.99234593 C535.46063971 177.14650154 535.45946098 173.30081632 535.47150993 169.45498276 C535.48445569 165.27412089 535.47385506 161.093634 535.46119881 156.91277122 C535.46857309 155.71410628 535.47594738 154.51544133 535.48354512 153.28045321 C535.29493367 123.51185021 521.60907908 97.72874843 501.00885201 77.05107689 C489.9421603 66.68117689 477.20226971 60.27559028 463.08697701 55.13701439 C462.16014107 54.79799095 461.23330513 54.45896751 460.27838326 54.10967064 C447.44778493 49.87494114 434.10195334 49.84461301 420.75555611 49.87631798 C418.93441248 49.8732919 417.11327013 49.86940015 415.29212999 49.86472541 C410.32267325 49.85449576 405.35328905 49.8566143 400.38382649 49.860906 C395.01087696 49.86338236 389.63794449 49.85434791 384.2650013 49.84686852 C373.7531647 49.83414555 363.24135367 49.83232475 352.72951066 49.83466878 C344.18352752 49.83645447 335.63755212 49.83469691 327.0915699 49.83044434 C325.87357457 49.82984915 324.65557925 49.82925396 323.40067497 49.82864073 C320.92605968 49.82742894 318.4514444 49.82621481 315.97682911 49.82499836 C292.79218508 49.81413247 269.6075556 49.81628104 246.42291075 49.8223832 C225.22626686 49.82755379 204.0296689 49.81629147 182.8330341 49.79728498 C161.04813987 49.77790127 139.26326737 49.76965138 117.47836447 49.77340823 C105.25578963 49.77531917 93.0332539 49.77284295 80.81068611 49.7586937 C70.40774783 49.7467723 60.00487276 49.74538372 49.6019336 49.75748386 C44.2979129 49.76336662 38.99400777 49.7644885 33.68999481 49.75248146 C28.82806914 49.74160332 23.96635528 49.74474898 19.10443944 49.75874314 C17.35226519 49.7613847 15.60007424 49.75904069 13.84791642 49.75100728 C3.47543506 49.70677798 -5.83140682 50.45831999 -15.91302299 53.13701439 Z " fill="#2563EB" transform="translate(179.91302299499512,94.86298561096191)"/>
<path d="M0 0 C5.41085034 4.61497575 8.61197658 9.33185106 11.44140625 15.8046875 C11.81866348 16.63394745 12.19592072 17.4632074 12.58460999 18.31759644 C13.74032126 20.8710911 14.87254508 23.4339223 16 26 C16.67278761 27.51214516 17.3457931 29.0241934 18.01904297 30.53613281 C20.01927673 35.05398513 21.97938094 39.58877665 23.9375 44.125 C25.41398348 47.53184954 26.89266765 50.93774312 28.37109375 54.34375 C28.74773163 55.21230621 29.12436951 56.08086243 29.51242065 56.97573853 C33.42343241 65.98980102 37.37862757 74.98430413 41.33578491 83.97817993 C51.87572317 107.94052194 51.87572317 107.94052194 56.625 118.9375 C56.98529297 119.76523926 57.34558594 120.59297852 57.71679688 121.44580078 C60 126.76425177 60 126.76425177 60 129 C63.71655106 125.42331914 66.97671197 121.65112589 70.125 117.5625 C71.09626402 116.31373197 72.0676208 115.06503607 73.0390625 113.81640625 C73.53051758 113.18234863 74.02197266 112.54829102 74.52832031 111.89501953 C76.83901995 108.91962959 79.17002229 105.96029975 81.5 103 C82.41677461 101.83341816 83.33344103 100.66675128 84.25 99.5 C97.08333333 83.16666667 109.91666667 66.83333333 122.75 50.5 C123.2039917 49.92193604 123.6579834 49.34387207 124.12573242 48.74829102 C125.03895104 47.58652897 125.95317045 46.42555289 126.8684082 45.26538086 C129.22182392 42.27946632 131.55415864 39.28021143 133.85546875 36.25390625 C147.89069247 17.88310631 147.89069247 17.88310631 158 16 C166.14163704 15.04559757 172.79076928 15.19395303 179.640625 19.984375 C187.85193561 26.99933572 194.23526876 35.72223025 200.70703125 44.29980469 C202.91677206 47.20551372 205.1774915 50.07082609 207.4375 52.9375 C207.89503662 53.51862549 208.35257324 54.09975098 208.82397461 54.69848633 C209.75206073 55.87712475 210.68036519 57.05559128 211.60888672 58.23388672 C213.90874237 61.15371048 216.20415945 64.07701893 218.5 67 C219.4166451 68.16668361 220.33331177 69.33335027 221.25 70.5 C229.5 81 229.5 81 237.75 91.5 C238.4308667 92.3664917 238.4308667 92.3664917 239.12548828 93.25048828 C240.04069993 94.41539177 240.95573944 95.58043053 241.87060547 96.74560547 C244.18313021 99.69039045 246.49874234 102.63265185 248.8203125 105.5703125 C249.75541997 106.75504132 250.69031759 107.9399358 251.625 109.125 C252.30357056 109.98484497 252.30357056 109.98484497 252.99584961 110.86206055 C256.84211255 115.75585185 260.55116666 120.74364044 264.22265625 125.76953125 C265.80709739 128.07888425 265.80709739 128.07888425 268 129 C268.17482407 128.44783813 268.34964813 127.89567627 268.5297699 127.32678223 C270.2752851 121.9374071 272.29191627 116.76541131 274.59765625 111.59375 C274.94404144 110.80782471 275.29042664 110.02189941 275.64730835 109.2121582 C276.78200313 106.6397855 277.92226272 104.06992008 279.0625 101.5 C279.86443864 99.68443244 280.66594466 97.86867374 281.46704102 96.05273438 C283.13555013 92.27140076 284.80592505 88.49089948 286.47753906 84.7109375 C290.09924251 76.51685525 293.6957312 68.31172349 297.2935791 60.10714722 C298.43120126 57.51435566 299.57031093 54.92222306 300.70996094 52.33032227 C305.17660423 42.17233568 305.17660423 42.17233568 309.60136414 31.99606323 C310.37119969 30.21534783 311.14368152 28.43577718 311.91625977 26.65625 C312.80486077 24.60775976 313.68869719 22.55719126 314.56616211 20.50390625 C318.97069094 10.37560001 323.51896675 2.88861995 333.125 -2.875 C340.307004 -5.62728725 348.99497954 -4.73127025 356 -2 C362.74969699 1.79670456 368.15602439 7.23886823 370.51953125 14.73046875 C374.04084303 31.36365693 364.15464855 47.09695908 357.50390625 61.78393555 C352.84797393 72.06653353 348.31067953 82.39750106 343.8125 92.75 C342.36098586 96.08867599 340.90911737 99.42719774 339.45703125 102.765625 C338.90884987 104.02607887 338.90884987 104.02607887 338.34959412 105.31199646 C333.51686775 116.41751907 328.63951894 127.50348542 323.76025391 138.58862305 C319.89702924 147.37039665 316.0594424 156.16234073 312.26171875 164.97265625 C311.10759696 167.64382836 309.95310779 170.31484147 308.79858398 172.98583984 C308.06735771 174.68159068 307.33845231 176.3783445 306.61206055 178.07617188 C305.60516723 180.42959363 304.5904345 182.77949806 303.57421875 185.12890625 C303.28536301 185.81042252 302.99650726 186.49193878 302.69889832 187.19410706 C300.01787023 193.35608154 296.8653671 200.0015361 291.5625 204.3125 C291.02753906 204.76238281 290.49257813 205.21226562 289.94140625 205.67578125 C282.73337103 210.59232841 276.52297416 210.81843129 268 210 C255.31511979 207.23712883 248.67320012 196.52483878 241.32519531 186.74853516 C239.10849664 183.82370172 236.8353474 180.94377861 234.5625 178.0625 C233.63671641 176.88672059 232.71093517 175.71093934 231.78515625 174.53515625 C231.09510498 173.65947998 231.09510498 173.65947998 230.39111328 172.76611328 C228.09125763 169.84628952 225.79584055 166.92298107 223.5 164 C222.5833549 162.83331639 221.66668823 161.66664973 220.75 160.5 C211.58333333 148.83333333 202.41666667 137.16666667 193.25 125.5 C192.5691333 124.6335083 192.5691333 124.6335083 191.87451172 123.74951172 C190.95930007 122.58460823 190.04426056 121.41956947 189.12939453 120.25439453 C186.81686979 117.30960955 184.50125766 114.36734815 182.1796875 111.4296875 C181.24465885 110.24489647 180.30976188 109.06000151 179.375 107.875 C178.92261963 107.30249512 178.47023926 106.72999023 178.00415039 106.14013672 C175.75072398 103.27583926 173.53542268 100.39124674 171.37890625 97.453125 C170.96656738 96.89254395 170.55422852 96.33196289 170.12939453 95.75439453 C169.00582152 94.21839981 167.89128223 92.67580866 166.77734375 91.1328125 C166.19082031 90.42898438 165.60429687 89.72515625 165 89 C164.34 89 163.68 89 163 89 C161.43735098 90.84092899 159.99407788 92.68539833 158.5625 94.625 C157.65701429 95.82739886 156.7507374 97.02920224 155.84375 98.23046875 C155.37453125 98.8548584 154.9053125 99.47924805 154.421875 100.12255859 C152.17367733 103.09107509 149.86940083 106.01451657 147.5625 108.9375 C146.63668627 110.11325568 145.71090522 111.28903708 144.78515625 112.46484375 C144.32512207 113.04862793 143.86508789 113.63241211 143.39111328 114.23388672 C141.09125763 117.15371048 138.79584055 120.07701893 136.5 123 C135.5833549 124.16668361 134.66668823 125.33335027 133.75 126.5 C133.29625 127.0775 132.8425 127.655 132.375 128.25 C120 144 107.625 159.75 95.25 175.5 C94.7960083 176.07806396 94.3420166 176.65612793 93.87426758 177.25170898 C92.96104896 178.41347103 92.04682955 179.57444711 91.1315918 180.73461914 C88.77817608 183.72053368 86.44584136 186.71978857 84.14453125 189.74609375 C70.08073886 208.15112884 70.08073886 208.15112884 61 210 C52.16955286 210.95959682 44.18370089 210.66203025 37 205 C31.29210502 199.5019541 27.99498767 193.59257549 24.875 186.375 C24.1780603 184.80963501 24.1780603 184.80963501 23.46704102 183.21264648 C21.96109865 179.81559044 20.47823117 176.40919765 19 173 C18.26934326 171.32429932 18.26934326 171.32429932 17.52392578 169.61474609 C15.16729498 164.20817591 12.82183367 158.79689452 10.48773193 153.38056946 C6.12260605 143.25363708 1.68918572 133.15714499 -2.75 123.0625 C-11.20889421 103.81961581 -19.62388363 84.55788796 -28.00738525 65.28204346 C-28.99989848 63.00023339 -29.99283697 60.71860874 -30.98583984 58.43701172 C-32.53857544 54.86881731 -34.08980765 51.29997324 -35.63973999 47.7305603 C-36.20706611 46.42441614 -36.77478598 45.11844292 -37.34292603 43.81265259 C-38.11527305 42.03709851 -38.8858114 40.260758 -39.65625 38.484375 C-40.08744141 37.49147461 -40.51863281 36.49857422 -40.96289062 35.47558594 C-44.13294322 27.90865248 -44.22182155 19.37112533 -41.4375 11.625 C-38.45580386 5.12236481 -33.44022599 0.13308291 -27 -3 C-18.29375392 -5.72190842 -7.71256108 -4.97946904 0 0 Z " fill="#2563EB" transform="translate(236,397)"/>
<path d="M0 0 C2.75593155 2.23099221 5.21435433 4.5240402 7.625 7.125 C8.305625 7.846875 8.98625 8.56875 9.6875 9.3125 C15.06460716 17.11797813 16.65316625 24.73524075 15.625 34.125 C13.5021566 44.96830082 7.6754506 52.81073214 -1.375 59.125 C-10.10859441 63.05511749 -19.21058508 64.91490843 -28.6171875 62.18359375 C-39.09007041 58.01794581 -45.83441832 52.21396938 -50.41796875 41.7421875 C-53.90021718 31.57336815 -53.32166666 22.45484678 -48.78515625 12.75 C-44.29716851 4.39562946 -36.53094212 -1.41099351 -27.52734375 -4.40625 C-18.13805378 -6.45110444 -8.3315089 -4.62861605 0 0 Z " fill="#2664EB" transform="translate(208.375,230.875)"/>
<path d="M0 0 C2.75593155 2.23099221 5.21435433 4.5240402 7.625 7.125 C8.305625 7.846875 8.98625 8.56875 9.6875 9.3125 C14.82817662 16.77477251 16.66438032 24.13373414 15.625 33.125 C13.51396003 44.51550345 8.18500499 52.45522908 -1.375 59.125 C-9.9192344 63.04038236 -19.37644392 64.90535962 -28.546875 62.18359375 C-38.24874565 58.3342197 -44.4566235 53.46846449 -49.375 44.125 C-53.14100284 34.59010141 -53.94946495 25.42509182 -50.1875 15.8125 C-45.76494258 6.26519638 -39.16132311 0.47558896 -29.5 -3.75 C-19.78468018 -6.98202719 -8.77494569 -4.87496983 0 0 Z " fill="#61A5FA" transform="translate(328.375,230.875)"/>
<path d="M0 0 C8.04948039 5.66501167 12.12268983 13.20744062 14.5703125 22.64453125 C16.03219198 31.99170008 13.20542879 42.32791337 7.8828125 50.08203125 C1.0823319 58.14060077 -7.6765513 61.67688251 -17.96484375 62.9609375 C-27.05275154 63.40741158 -35.64409985 60.13579162 -42.6484375 54.39453125 C-50.08059027 47.09276713 -53.36081139 37.95173524 -53.8671875 27.64453125 C-53.50659687 17.76748357 -49.01472763 8.89278504 -41.875 2.18359375 C-29.35401599 -7.70139363 -13.64751545 -7.61364608 0 0 Z " fill="#93C5FD" transform="translate(449.4296875,231.35546875)"/>
</svg>
